<svg xmlns="http://www.w3.org/2000/svg" xmlns:xlink="http://www.w3.org/1999/xlink" viewBox="0,0,256,256" width="96px" height="96px" fill-rule="nonzero"><g fill="none" fill-rule="nonzero" stroke="none" stroke-width="1" stroke-linecap="butt" stroke-linejoin="miter" stroke-miterlimit="10" stroke-dasharray="" stroke-dashoffset="0" font-family="none" font-weight="none" font-size="none" text-anchor="none" style="mix-blend-mode: normal"><g transform="scale(5.33333,5.33333)"><path d="M35.4,41l-1.4,-14h-20l-1.4,14l-6.6,6h36z" fill="#000000"></path><path d="M36,17c0,0 -0.3,-9 -12,-9c-11.7,0 -12,9 -12,9c0,6.6 2,17.3 2.8,20.8c0.2,0.7 0.6,1.4 1.2,1.8l5.5,3.9c0.3,0.2 0.7,0.4 1.2,0.4h2.7c0.4,0 0.8,-0.1 1.2,-0.4l5.5,-3.9c0.6,-0.4 1,-1.1 1.2,-1.8c0.7,-3.5 2.7,-14.2 2.7,-20.8z" fill="#000000"></path><path d="M24,33v-7.3l-2,-0.7l-1.7,6.9c1.4,0.6 2.9,1.1 3.7,1.1z" fill="#000000"></path><path d="M33,23l-7,2l1.7,6.9l1.8,9.6l2.5,-1.8c0.6,-0.4 1,-1.1 1.2,-1.8c0.4,-2 1.3,-6.4 1.9,-11v0c0.1,-0.8 0.2,-1.6 0.3,-2.4v0c0.1,-0.8 0.2,-1.6 0.3,-2.4zM15,23l7,2l-1.7,6.9l-1.8,9.6l-2.5,-1.8c-0.6,-0.4 -1,-1.1 -1.2,-1.8c-0.4,-2 -1.3,-6.4 -1.9,-11v0c-0.1,-0.8 -0.2,-1.6 -0.3,-2.4v0c-0.1,-0.8 -0.2,-1.6 -0.3,-2.4z" fill="#000000"></path><path d="M26,25l7,-2c0,0 -2,3 -4,3c-2,0 -3,-1 -3,-1zM22,25l-7,-2c0,0 2,3 4,3c2,0 3,-1 3,-1z" fill="#ffffff"></path><path d="M12,17c0,-7 2,-16 2,-16l3,9l-4,7zM36,17c0,-7 -2,-16 -2,-16l-3,9l4,7z" fill="#000000"></path><path d="M17.7,12c0,0 2.3,-2 6.3,-2c4,0 6.3,2 6.3,2l0.8,-2.4c-1.7,-1 -4,-1.6 -7.1,-1.6c-3.1,0 -5.4,0.6 -7.1,1.6z" fill="#000000"></path><path d="M16,30c0,0 6,3 8,3c2,0 8,-3 8,-3l-2,11.2l-3.5,2.4c-0.3,0.3 -0.8,0.4 -1.2,0.4h-2.7c-0.4,0 -0.9,-0.1 -1.2,-0.4l-3.4,-2.5z" fill="#ffb74d"></path><path d="M20.4,37.7l-0.9,-1.8c0.1,0 1.8,-0.9 4.4,-0.9c2.6,0 4.4,0.9 4.4,0.9l-0.9,1.8c0,0 -1.4,-0.7 -3.6,-0.7c-1.9,0 -3.3,0.7 -3.4,0.7z" fill="#000000"></path></g></g></svg>