<svg xmlns="http://www.w3.org/2000/svg"  viewBox="0 0 48 48" width="48px" height="48px" baseProfile="basic"><path d="M40.461,12.184c-0.012-0.021-0.025-0.043-0.039-0.064c-0.646-0.972-1.562-1.716-2.649-2.152	c-2.327-0.934-4.335-1.559-6.137-1.913c-1.281-0.25-2.559,0.379-3.159,1.565l-0.134,0.258c-1.314-0.144-2.718-0.191-4.321-0.152	c-1.64-0.039-3.047,0.009-4.366,0.152l-0.128-0.249c-0.605-1.195-1.882-1.824-3.163-1.574c-1.804,0.354-3.812,0.979-6.143,1.913	c-1.087,0.437-2.002,1.184-2.645,2.158c-3.939,5.946-5.769,12.305-5.56,19.359c-0.042,1.607,0.02,3.249,0.198,4.932	c0.032,0.305,0.201,0.578,0.46,0.741c3.394,2.143,6.462,3.672,9.372,4.674c1.257,0.442,2.651-0.045,3.393-1.181l1.52-2.327	c2.251,0.622,4.604,0.962,7.034,1.012c2.376-0.049,4.72-0.39,6.978-1.015l1.592,2.372c0.56,0.831,1.484,1.305,2.438,1.305	c0.31,0,0.622-0.05,0.926-0.153c2.957-1.02,5.943-2.509,9.397-4.687c0.259-0.163,0.429-0.437,0.461-0.741	c0.177-1.682,0.24-3.322,0.198-4.929C46.191,24.455,44.375,18.113,40.461,12.184z"/><path fill="#fff" d="M33.397,38.104c0.49,0.749,1.399,1.074,2.224,0.784c3.178-1.094,6.212-2.708,9.17-4.577	c0.775-7.339-0.525-14.574-5.202-21.634c-0.53-0.804-1.289-1.424-2.184-1.784c-2.044-0.819-4.048-1.484-5.962-1.859	c-0.835-0.165-1.679,0.255-2.079,1.044l-0.45,0.874c-1.274-0.175-2.793-0.28-4.912-0.23c-2.124-0.05-3.643,0.055-4.912,0.23	l-0.455-0.874c-0.4-0.789-1.244-1.209-2.079-1.044c-1.909,0.375-3.913,1.039-5.957,1.859c-0.895,0.36-1.654,0.974-2.189,1.779v0.005	c-4.677,7.06-5.977,14.294-5.202,21.634c2.963,1.869,6.002,3.487,9.19,4.587c0.82,0.28,1.714-0.03,2.209-0.764l1.999-2.978	c2.304,0.704,4.762,1.124,7.421,1.179c2.659-0.055,5.147-0.475,7.446-1.179L33.397,38.104z"/><path d="M12.999,39.998c-0.309,0-0.62-0.05-0.922-0.153c-2.961-1.021-5.947-2.51-9.401-4.688c-0.259-0.163-0.429-0.437-0.461-0.741	C1.348,26.198,3.089,18.925,7.54,12.183c0.012-0.021,0.024-0.043,0.038-0.063c0.646-0.972,1.562-1.716,2.648-2.152	c2.328-0.934,4.336-1.559,6.138-1.913c1.281-0.251,2.558,0.379,3.163,1.574l0.13,0.249c1.317-0.144,2.729-0.19,4.369-0.152	c1.601-0.039,3,0.01,4.318,0.152l0.13-0.254c0.604-1.189,1.88-1.82,3.161-1.569c1.804,0.354,3.812,0.979,6.142,1.913	c1.088,0.437,2.003,1.184,2.646,2.161c4.477,6.756,6.231,14.048,5.361,22.288c-0.032,0.305-0.201,0.578-0.46,0.741	c-3.394,2.143-6.462,3.672-9.379,4.676c-1.249,0.44-2.645-0.046-3.386-1.183l-1.52-2.327c-2.251,0.622-4.6,0.962-6.993,1.012	c-2.413-0.049-4.761-0.39-7.019-1.015l-1.592,2.371C14.878,39.523,13.952,39.998,12.999,39.998z M4.155,33.725	c3.146,1.952,5.88,3.301,8.57,4.229c0.384,0.129,0.811-0.019,1.052-0.378l1.999-2.977c0.246-0.365,0.7-0.531,1.122-0.398	c2.333,0.713,4.672,1.084,7.149,1.135c2.426-0.051,4.84-0.433,7.133-1.135c0.424-0.129,0.887,0.036,1.13,0.409l1.924,2.947	c0.001,0,0.001,0,0.001,0.001c0.236,0.362,0.669,0.523,1.054,0.387c2.658-0.915,5.459-2.296,8.556-4.22	c0.701-7.562-0.966-14.271-5.09-20.494c-0.42-0.638-1.015-1.124-1.723-1.408c-2.21-0.886-4.102-1.477-5.781-1.806	c-0.396-0.077-0.798,0.129-0.995,0.516l-0.451,0.879c-0.193,0.378-0.603,0.597-1.025,0.533c-1.416-0.192-2.925-0.265-4.752-0.22	c-1.88-0.046-3.391,0.026-4.801,0.22c-0.421,0.064-0.829-0.154-1.024-0.529l-0.454-0.874c-0.2-0.396-0.597-0.602-0.999-0.524	c-1.678,0.329-3.567,0.92-5.777,1.806c-0.689,0.277-1.274,0.745-1.693,1.354c-0.011,0.019-0.021,0.036-0.033,0.055	C5.121,19.453,3.454,26.162,4.155,33.725z"/><path d="M34.73,33.248c-0.274-0.479-0.885-0.648-1.364-0.372c-5.746,3.28-13.028,3.278-18.772,0	c-0.483-0.276-1.091-0.107-1.364,0.372c-0.274,0.479-0.107,1.091,0.372,1.364c3.175,1.812,6.765,2.771,10.381,2.771	c3.614,0,7.202-0.958,10.376-2.771C34.838,34.339,35.005,33.728,34.73,33.248z"/><path d="M17.5,20c-1.921,0-3.5,1.808-3.5,4s1.579,4,3.5,4s3.5-1.808,3.5-4S19.421,20,17.5,20z"/><path d="M27,24c0,2.192,1.579,4,3.5,4s3.5-1.808,3.5-4s-1.579-4-3.5-4S27,21.808,27,24z"/></svg>