<svg xmlns="http://www.w3.org/2000/svg"  viewBox="0 0 48 48" width="48px" height="48px" baseProfile="basic"><path d="M41,8H7C6.447,8,6,8.448,6,9v32c0,1.654,1.346,3,3,3h30c1.654,0,3-1.346,3-3V9C42,8.448,41.553,8,41,8z"/><path fill="#fff" d="M39,41H9c-1.105,0-2-0.895-2-2V7h34v32C41,40.105,40.105,41,39,41z"/><path d="M39,42H9c-1.654,0-3-1.346-3-3V7c0-0.553,0.447-1,1-1h34c0.553,0,1,0.447,1,1v32C42,40.654,40.654,42,39,42z M8,8v31	c0,0.552,0.448,1,1,1h30c0.552,0,1-0.448,1-1V8H8z"/><path d="M28.573,31.038h4.921l0.765-4.993h-5.686V23.31c0-2.078,0.675-3.913,2.618-3.913h3.122v-4.363	c-0.549-0.072-1.709-0.234-3.895-0.234c-4.579,0-7.26,2.411-7.26,7.917v3.329h-4.696v4.993h4.696v11.728	C24.093,42.901,25.028,43,26,43c0.873,0,1.727-0.081,2.573-0.198V31.038z"/></svg>