<svg xmlns="http://www.w3.org/2000/svg"  viewBox="0 0 48 48" width="48px" height="48px" baseProfile="basic"><path d="M45,37c0-0.222-0.073-0.438-0.209-0.612L39.533,29.6l-1.915-14.114c-0.436-3.205-2.572-5.943-5.576-7.146L27,6.323V4	c0-0.553-0.447-1-1-1h-4c-0.553,0-1,0.447-1,1v2.323L15.958,8.34c-3.004,1.202-5.141,3.94-5.576,7.146L8.467,29.6l-5.258,6.788	C3.073,36.562,3,36.778,3,37v3c0,1.654,1.346,3,3,3h13.101c0.465,2.279,2.484,4,4.899,4s4.434-1.721,4.899-4H42c1.654,0,3-1.346,3-3	V37z"/><circle cx="24" cy="40" r="4" fill="#fff"/><path d="M24,45c-2.757,0-5-2.243-5-5s2.243-5,5-5s5,2.243,5,5S26.757,45,24,45z M24,37c-1.654,0-3,1.346-3,3s1.346,3,3,3	s3-1.346,3-3S25.654,37,24,37z"/><path fill="#fff" d="M38.578,30l-1.951-14.379c-0.387-2.856-2.281-5.282-4.956-6.352L26,7V4h-4v3l-5.671,2.268	c-2.676,1.07-4.569,3.497-4.956,6.352L9.422,30L4,37v1c0,1.105,0.895,2,2,2h36c1.105,0,2-0.895,2-2v-1L38.578,30z"/><path d="M42,41H6c-1.654,0-3-1.346-3-3v-1c0-0.222,0.073-0.438,0.209-0.612L8.467,29.6l1.915-14.114	c0.436-3.205,2.572-5.943,5.576-7.146L21,6.323V4c0-0.553,0.447-1,1-1h4c0.553,0,1,0.447,1,1v2.323l5.042,2.017	c3.004,1.202,5.141,3.94,5.576,7.146L39.533,29.6l5.258,6.788C44.927,36.562,45,36.778,45,37v1C45,39.654,43.654,41,42,41z M5,37.342V38c0,0.552,0.448,1,1,1h36c0.552,0,1-0.448,1-1v-0.658l-5.213-6.729c-0.107-0.139-0.177-0.304-0.2-0.478l-1.951-14.38	c-0.338-2.493-2-4.623-4.336-5.558l-5.671-2.269C25.249,7.776,25,7.409,25,7V5h-2v2c0,0.409-0.249,0.776-0.629,0.929L16.7,10.197	c-2.336,0.935-3.998,3.064-4.336,5.558l-1.951,14.38c-0.023,0.174-0.093,0.339-0.2,0.478L5,37.342z"/><path d="M38,29H21c-0.553,0-1,0.447-1,1s0.447,1,1,1h18L38,29z"/><path d="M15,29h-5l-1,2h6c0.553,0,1-0.447,1-1S15.553,29,15,29z"/></svg>