<svg xmlns="http://www.w3.org/2000/svg"  viewBox="0 0 48 48" width="48px" height="48px" baseProfile="basic"><path d="M45.345,20.262l-3.825-1.403c-0.364-1.542-0.939-3.016-1.697-4.411l1.206-2.603c0.075-0.162,0.095-0.337,0.08-0.507h0.009	V9.47h-0.006c0.012-0.275-0.08-0.55-0.283-0.753l-2.546-2.546c-0.297-0.297-0.749-0.377-1.127-0.2l-3.704,1.716	C31.8,6.662,30.019,5.923,28.142,5.48l-1.403-3.825C26.594,1.262,26.22,1,25.8,1h-3.6c-0.42,0-0.794,0.262-0.938,0.655L19.858,5.48	c-1.877,0.442-3.658,1.182-5.311,2.206l-3.704-1.716c-0.378-0.177-0.83-0.097-1.127,0.2L7.171,8.717	C6.968,8.92,6.875,9.195,6.888,9.47H6.882v1.868h0.009c-0.015,0.17,0.004,0.344,0.08,0.507l1.206,2.603	c-0.758,1.395-1.333,2.868-1.697,4.411l-3.825,1.403C2.262,20.406,2,20.78,2,21.2v5.6c0,0.42,0.262,0.794,0.655,0.938l3.825,1.403	c0.364,1.542,0.939,3.016,1.697,4.41l-1.206,2.604c-0.059,0.128-0.079,0.262-0.082,0.397H6.879v2.084H6.89	c0.015,0.238,0.104,0.469,0.281,0.646l2.546,2.546c0.297,0.297,0.748,0.376,1.128,0.2l3.702-1.717	c1.652,1.024,3.435,1.765,5.312,2.207l1.403,3.825C21.406,46.738,21.78,47,22.2,47h3.6c0.42,0,0.794-0.262,0.938-0.655l1.403-3.825	c1.877-0.442,3.659-1.183,5.312-2.207l3.702,1.717c0.38,0.176,0.831,0.097,1.128-0.2l2.546-2.546	c0.177-0.177,0.266-0.408,0.281-0.646h0.011v-2.084h-0.009c-0.003-0.135-0.023-0.27-0.082-0.397l-1.206-2.604	c0.758-1.395,1.333-2.868,1.697-4.41l3.825-1.403C45.738,27.594,46,27.22,46,26.8v-5.6C46,20.78,45.738,20.406,45.345,20.262z M24,28.611c-2.752,0-5.043-1.994-5.517-4.611c0.474-2.618,2.765-4.611,5.517-4.611s5.043,1.994,5.517,4.611	C29.043,26.618,26.752,28.611,24,28.611z"/><path fill="#fff" d="M45,24.8v-3.6l-4.34-1.591c-0.44-2.175-1.3-4.197-2.485-5.984l1.947-4.201l-2.546-2.546 l-4.201,1.947c-1.788-1.185-3.809-2.044-5.984-2.485L25.8,2h-3.6l-1.591,4.34c-2.175,0.44-4.197,1.3-5.984,2.485l-4.201-1.947 L7.878,9.424l1.947,4.201c-1.185,1.788-2.044,3.809-2.485,5.984L3,21.2v3.6l4.34,1.591c0.44,2.175,1.3,4.197,2.485,5.984 l-1.947,4.201l2.546,2.546l4.201-1.947c1.788,1.185,3.809,2.044,5.984,2.485L22.2,44h3.6l1.591-4.34 c2.175-0.44,4.197-1.3,5.984-2.485l4.201,1.947l2.546-2.546l-1.947-4.201c1.185-1.788,2.044-3.809,2.485-5.984L45,24.8z M24,29.611 c-3.651,0-6.611-2.96-6.611-6.611c0-3.651,2.96-6.611,6.611-6.611s6.611,2.96,6.611,6.611C30.611,26.651,27.651,29.611,24,29.611z"/><path d="M25.8,45h-3.6c-0.42,0-0.794-0.262-0.938-0.656l-1.403-3.825c-1.876-0.442-3.658-1.182-5.312-2.206l-3.702,1.716 c-0.38,0.176-0.831,0.097-1.128-0.2l-2.546-2.546c-0.297-0.296-0.377-0.747-0.2-1.127l1.716-3.703 C7.662,30.8,6.923,29.018,6.48,27.142l-3.825-1.403C2.262,25.594,2,25.219,2,24.8v-3.6c0-0.419,0.262-0.794,0.655-0.939 l3.825-1.403c0.442-1.876,1.183-3.659,2.206-5.312L6.971,9.844c-0.177-0.381-0.097-0.831,0.2-1.127l2.546-2.545 c0.297-0.297,0.748-0.377,1.128-0.2l3.703,1.716c1.652-1.024,3.435-1.764,5.311-2.206l1.403-3.825C21.406,1.262,21.78,1,22.2,1h3.6 c0.42,0,0.794,0.262,0.938,0.656l1.403,3.825c1.876,0.442,3.658,1.182,5.311,2.206l3.703-1.716c0.38-0.177,0.831-0.097,1.128,0.2 l2.546,2.545c0.297,0.296,0.377,0.747,0.2,1.127l-1.716,3.703c1.023,1.653,1.764,3.435,2.206,5.312l3.825,1.403 C45.738,20.406,46,20.781,46,21.2v3.6c0,0.419-0.262,0.794-0.655,0.939l-3.825,1.403c-0.442,1.876-1.182,3.659-2.206,5.312 l1.716,3.703c0.177,0.381,0.097,0.831-0.2,1.127l-2.546,2.546c-0.297,0.297-0.748,0.376-1.128,0.2l-3.702-1.716 c-1.653,1.024-3.436,1.764-5.312,2.206l-1.403,3.825C26.594,44.738,26.22,45,25.8,45z M22.898,43h2.203l1.352-3.684 c0.119-0.326,0.399-0.567,0.74-0.636c2.008-0.407,3.902-1.193,5.63-2.338c0.29-0.192,0.657-0.22,0.974-0.074l3.566,1.653 l1.558-1.558l-1.652-3.567c-0.146-0.315-0.118-0.683,0.073-0.973c1.145-1.727,1.932-3.622,2.338-5.63 c0.069-0.341,0.31-0.621,0.636-0.741L44,24.102v-2.203l-3.685-1.351c-0.326-0.12-0.566-0.4-0.636-0.741 c-0.406-2.008-1.193-3.903-2.338-5.63c-0.191-0.29-0.22-0.658-0.073-0.973l1.652-3.567l-1.558-1.558l-3.567,1.653 c-0.316,0.146-0.684,0.118-0.974-0.074c-1.727-1.145-3.621-1.932-5.629-2.338c-0.341-0.069-0.621-0.31-0.74-0.636L25.102,3h-2.203 l-1.352,3.684c-0.119,0.326-0.399,0.567-0.74,0.636c-2.008,0.407-3.902,1.193-5.629,2.338c-0.29,0.192-0.655,0.22-0.974,0.074 l-3.567-1.653L9.079,9.637l1.652,3.567c0.146,0.315,0.118,0.683-0.073,0.973c-1.145,1.727-1.932,3.622-2.338,5.63 c-0.069,0.341-0.31,0.621-0.636,0.741L4,21.898v2.203l3.685,1.351c0.326,0.12,0.566,0.4,0.636,0.741 c0.406,2.008,1.193,3.903,2.338,5.63c0.191,0.29,0.22,0.658,0.073,0.973l-1.652,3.567l1.558,1.558l3.566-1.653 c0.316-0.146,0.684-0.119,0.974,0.074c1.728,1.145,3.622,1.932,5.63,2.338c0.341,0.069,0.621,0.31,0.74,0.636L22.898,43z M45,24.8 h0.01H45z M24,30.611c-4.197,0-7.611-3.415-7.611-7.611s3.414-7.611,7.611-7.611s7.611,3.415,7.611,7.611S28.197,30.611,24,30.611z M24,17.389c-3.094,0-5.611,2.517-5.611,5.611s2.518,5.611,5.611,5.611s5.611-2.517,5.611-5.611S27.094,17.389,24,17.389z"/></svg>