<svg xmlns="http://www.w3.org/2000/svg"  viewBox="0 0 48 48" width="48px" height="48px" baseProfile="basic"><path d="M47,17.01c0.003-0.239-0.081-0.472-0.237-0.657C46.573,16.129,46.294,16,46,16h-3v-5c0-0.553-0.447-1-1-1H20.202	l-2.37-3.555C17.646,6.167,17.334,6,17,6H6C5.447,6,5,6.447,5,7v34c0,1.654,1.346,3,3,3h0.361h31.098H40	c1.119,0,2.086-0.623,2.601-1.534c0.402-0.513,0.689-1.125,0.803-1.809l3.582-21.493c0.008-0.047,0.012-0.095,0.013-0.142	C47.003,18.794,46.999,17.062,47,17.01z"/><path fill="#fff" d="M42,11H19.667L17,7H6v32c0,1.105,0.895,2,2,2h32c1.105,0,2-0.895,2-2V11z"/><path d="M40,42H8c-1.654,0-3-1.346-3-3V7c0-0.553,0.448-1,1-1h11c0.334,0,0.646,0.167,0.832,0.445L20.202,10H42c0.552,0,1,0.447,1,1	v28C43,40.654,41.654,42,40,42z M7,8v31c0,0.552,0.449,1,1,1h32c0.551,0,1-0.448,1-1V12H19.667c-0.334,0-0.646-0.167-0.832-0.445	L16.465,8H7z"/><path fill="#fff" d="M39.459,41H8.361c-1.236,0-2.176-1.11-1.973-2.329L10,17h36l-3.582,21.493	C42.177,39.94,40.925,41,39.459,41z"/><path d="M39.458,42H8.361c-0.883,0-1.718-0.387-2.289-1.061c-0.571-0.674-0.816-1.561-0.67-2.433l3.612-21.671	C9.094,16.354,9.511,16,10,16h36c0.294,0,0.573,0.129,0.763,0.354s0.271,0.521,0.223,0.811l-3.582,21.493	C43.082,40.595,41.422,42,39.458,42z M10.847,18L7.375,38.835c-0.049,0.295,0.03,0.584,0.224,0.812C7.791,39.874,8.062,40,8.361,40	h31.098c0.982,0,1.812-0.703,1.973-1.671L44.819,18H10.847z"/></svg>